<svg width="60" height="60" viewBox="0 0 60 60" fill="none" xmlns="http://www.w3.org/2000/svg">
<mask id="path-1-inside-1_228_1160" fill="white">
<path d="M13.2434 0.208467C9.59327 0.79309 6.9212 2.01638 4.37816 4.26775C1.57916 6.74518 0.257214 9.41359 0.0370539 13.029C-0.207703 17.0443 0.742112 20.6918 3.42275 26.0327C5.85596 30.8807 6.28431 32.4123 6.55391 37.2286C7.07606 46.5588 8.2901 51.7151 10.875 55.58C13.0145 58.779 16.8917 60.7069 19.1987 59.719C20.7413 59.0585 21.1743 57.9229 22.6239 50.7401C23.8705 44.5623 24.4204 42.4477 25.3488 40.2651C26.6123 37.295 27.8807 36.1866 30.017 36.1866C33.709 36.1866 35.4876 39.3822 37.2194 49.1268C38.4805 56.2223 38.8287 57.5678 39.7125 58.7611C41.6776 61.4143 46.7216 59.6024 49.4514 55.263C51.4059 52.1562 52.2982 49.3385 53.1915 43.4524C53.2526 43.0487 53.415 40.7799 53.5524 38.4108C53.9055 32.3153 54.2565 31.1084 57.6553 24.2911C58.1894 23.2203 58.9344 21.3599 59.3114 20.157C59.9314 18.1785 59.9969 17.6427 59.9999 14.5415C60.0028 11.2923 59.9658 11.019 59.2902 9.31216C57.7189 5.34181 53.8325 2.02384 49.2673 0.754574C45.566 -0.274515 43.3347 -0.256972 37.9208 0.84391C31.0372 2.24345 27.6851 2.21986 21.2445 0.726744C18.181 0.016485 15.5193 -0.155939 13.2434 0.208467Z"/>
<path fill-rule="evenodd" clip-rule="evenodd" d="M4.37816 4.26775C6.9212 2.01638 9.59327 0.79309 13.2434 0.208467C15.5193 -0.155939 18.181 0.016485 21.2445 0.726744C27.6851 2.21986 31.0372 2.24345 37.9208 0.84391C43.3347 -0.256972 45.566 -0.274515 49.2673 0.754574C53.8325 2.02384 57.7189 5.34181 59.2902 9.31216C59.9658 11.019 60.0028 11.2923 59.9999 14.5415C59.9969 17.6427 59.9314 18.1785 59.3114 20.157C58.9344 21.3599 58.1894 23.2203 57.6553 24.2911C54.2565 31.1084 53.9055 32.3153 53.5524 38.4108C53.415 40.7799 53.2526 43.0487 53.1915 43.4524C52.2982 49.3385 51.4059 52.1562 49.4514 55.263C46.7216 59.6024 41.6776 61.4143 39.7125 58.7611C38.8287 57.5678 38.4805 56.2223 37.2194 49.1268C35.4876 39.3822 33.709 36.1866 30.017 36.1866C27.8807 36.1866 26.6123 37.295 25.3488 40.2651C24.4204 42.4477 23.8705 44.5623 22.6239 50.7401C21.1743 57.9229 20.7413 59.0585 19.1987 59.719C16.8917 60.7069 13.0145 58.779 10.875 55.58C8.2901 51.7151 7.07606 46.5588 6.55391 37.2286C6.28431 32.4123 5.85596 30.8807 3.42275 26.0327C0.742112 20.6918 -0.207703 17.0443 0.0370539 13.029C0.257214 9.41359 1.57916 6.74518 4.37816 4.26775Z"/>
</mask>
<path d="M13.2434 0.208467L10.0023 -20.0337L10.0014 -20.0336L13.2434 0.208467ZM4.37816 4.26775L17.9652 19.6184L17.9669 19.6169L4.37816 4.26775ZM0.0370539 13.029L20.4991 14.2763L20.4992 14.275L0.0370539 13.029ZM3.42275 26.0327L21.7446 16.837L21.7445 16.8368L3.42275 26.0327ZM6.55391 37.2286L27.0219 36.0832L27.0219 36.0829L6.55391 37.2286ZM10.875 55.58L27.9152 44.1835L27.9151 44.1832L10.875 55.58ZM19.1987 59.719L11.1302 40.8736L11.1288 40.8742L19.1987 59.719ZM22.6239 50.7401L42.7188 54.7954L42.7188 54.7953L22.6239 50.7401ZM25.3488 40.2651L6.48475 32.2403L6.48441 32.2411L25.3488 40.2651ZM37.2194 49.1268L17.0357 52.7139L17.0357 52.7139L37.2194 49.1268ZM39.7125 58.7611L56.1863 46.56L56.186 46.5596L39.7125 58.7611ZM49.4514 55.263L66.8035 66.1789L66.8036 66.1787L49.4514 55.263ZM53.1915 43.4524L73.4594 46.5283L73.4605 46.5213L53.1915 43.4524ZM53.5524 38.4108L74.018 39.5973L74.0181 39.5964L53.5524 38.4108ZM57.6553 24.2911L39.3104 15.1415L39.309 15.1443L57.6553 24.2911ZM59.3114 20.157L78.8732 26.2877L78.8733 26.2875L59.3114 20.157ZM59.9999 14.5415L80.4999 14.5608V14.5599L59.9999 14.5415ZM59.2902 9.31216L40.2287 16.856L40.2289 16.8566L59.2902 9.31216ZM49.2673 0.754574L54.7587 -18.9962L54.7587 -18.9962L49.2673 0.754574ZM37.9208 0.84391L42.0052 20.9329L42.0058 20.9328L37.9208 0.84391ZM21.2445 0.726744L16.6144 20.697L16.6148 20.6971L21.2445 0.726744ZM13.2434 0.208467L10.0014 -20.0336C2.86225 -18.8901 -3.49547 -16.141 -9.21056 -11.0814L4.37816 4.26775L17.9669 19.6169C17.954 19.6283 17.8432 19.7244 17.6405 19.8587C17.4328 19.9962 17.1898 20.1332 16.9299 20.2522C16.3794 20.5042 16.1197 20.5091 16.4855 20.4505L13.2434 0.208467ZM4.37816 4.26775L-9.20891 -11.0829C-15.9349 -5.12962 -19.8628 2.55067 -20.425 11.783L0.0370539 13.029L20.4992 14.275C20.4715 14.7284 20.3099 15.9092 19.6095 17.3229C18.9212 18.712 18.1385 19.465 17.9652 19.6184L4.37816 4.26775ZM0.0370539 13.029L-20.425 11.7817C-20.9714 20.7456 -18.4691 28.1155 -14.899 35.2286L3.42275 26.0327L21.7445 16.8368C20.773 14.9012 20.5226 14.0649 20.4714 13.8683C20.4546 13.8037 20.4747 13.8667 20.4891 14.0148C20.4957 14.0817 20.4989 14.145 20.4998 14.1989C20.5006 14.2522 20.4988 14.2802 20.4991 14.2763L0.0370539 13.029ZM3.42275 26.0327L-14.8991 35.2284C-14.3513 36.3197 -14.0828 36.8971 -13.9376 37.2354C-13.8188 37.5122 -13.8662 37.4375 -13.9428 37.1639C-14.1174 36.5394 -14.0295 36.3114 -13.9141 38.3744L6.55391 37.2286L27.0219 36.0829C26.8677 33.3295 26.6067 29.9276 25.5421 26.1212C24.5239 22.4802 23.0172 19.3726 21.7446 16.837L3.42275 26.0327ZM6.55391 37.2286L-13.9141 38.3741C-13.3558 48.3503 -11.9869 58.2722 -6.165 66.9768L10.875 55.58L27.9151 44.1832C28.2495 44.6832 28.1439 44.8114 27.8952 43.7553C27.5969 42.4885 27.253 40.2132 27.0219 36.0832L6.55391 37.2286ZM10.875 55.58L-6.16517 66.9766C-3.09862 71.5617 1.13982 75.2351 5.8466 77.5755C9.83203 79.5573 18.1638 82.4627 27.2687 78.5638L19.1987 59.719L11.1288 40.8742C14.6905 39.3489 17.8621 39.3546 19.8136 39.6029C21.7896 39.8544 23.2295 40.4301 24.1015 40.8637C25.7581 41.6874 26.9882 42.7973 27.9152 44.1835L10.875 55.58ZM19.1987 59.719L27.2673 78.5643C29.4737 77.6197 32.581 75.9166 35.4243 72.7547C38.0159 69.8726 39.3681 66.9004 40.1 64.9816C41.3174 61.7901 42.1047 57.8379 42.7188 54.7954L22.6239 50.7401L2.52897 46.6848C2.1733 48.4473 1.93314 49.5702 1.75251 50.3282C1.55004 51.1778 1.55504 50.9914 1.79235 50.3692C2.04201 49.7147 2.90608 47.5993 4.93743 45.3402C7.22036 42.8015 9.69503 41.488 11.1302 40.8736L19.1987 59.719ZM22.6239 50.7401L42.7188 54.7953C43.3387 51.7235 43.6921 50.1394 43.9455 49.1652C44.1367 48.4299 44.1966 48.3282 44.2132 48.2891L25.3488 40.2651L6.48441 32.2411C4.62869 36.6039 3.74267 40.6705 2.52895 46.6849L22.6239 50.7401ZM25.3488 40.2651L44.2129 48.2899C44.426 47.7889 43.5821 50.1572 40.8436 52.5498C39.2969 53.9011 37.3892 55.053 35.2038 55.8012C33.0929 56.5238 31.26 56.6866 30.017 56.6866V36.1866V15.6866C24.8742 15.6866 18.9622 17.2232 13.8676 21.6744C9.64491 25.3637 7.53511 29.7712 6.48475 32.2403L25.3488 40.2651ZM30.017 36.1866V56.6866C27.8182 56.6866 24.6426 56.1563 21.483 54.1539C18.5061 52.2674 17.0121 49.9985 16.4409 48.9723C15.9208 48.0378 15.9016 47.6638 16.143 48.5255C16.3615 49.3053 16.6627 50.615 17.0357 52.7139L37.2194 49.1268L57.4031 45.5397C56.5403 40.6845 55.2293 34.3574 52.2656 29.0327C50.5718 25.9895 47.8328 22.3127 43.4298 19.5225C38.8442 16.6165 34.0618 15.6866 30.017 15.6866V36.1866ZM37.2194 49.1268L17.0357 52.7139C17.6299 56.0572 18.1683 59.0021 18.7612 61.2931C19.519 64.2216 20.7163 67.5565 23.2391 70.9625L39.7125 58.7611L56.186 46.5596C56.4429 46.9065 56.7614 47.3695 57.0917 47.9335C57.4229 48.4988 57.6959 49.0457 57.9166 49.5515C58.3296 50.498 58.4806 51.1254 58.4537 51.0214C58.4464 50.9934 58.4147 50.8672 58.3568 50.6024C58.2996 50.3404 58.2267 49.9887 58.1344 49.5174C57.9466 48.5586 57.714 47.2891 57.4031 45.5397L37.2194 49.1268ZM39.7125 58.7611L23.2388 70.9621C31.9154 82.6772 45.1917 81.0947 51.2253 78.9274C57.8389 76.5518 63.2679 71.7991 66.8035 66.1789L49.4514 55.263L32.0994 44.3471C32.9051 43.0663 34.4472 41.3893 37.3651 40.3412C38.8623 39.8034 41.6061 39.1338 45.1356 39.7375C49.0373 40.4049 53.2345 42.5745 56.1863 46.56L39.7125 58.7611ZM49.4514 55.263L66.8036 66.1787C70.9053 59.6584 72.3746 53.6761 73.4594 46.5283L53.1915 43.4524L32.9236 40.3765C32.537 42.9235 32.28 43.8822 32.1759 44.2111C32.1426 44.3163 32.1437 44.2957 32.1793 44.2199C32.2125 44.1493 32.2094 44.1723 32.0993 44.3473L49.4514 55.263ZM53.1915 43.4524L73.4605 46.5213C73.7025 44.9226 73.914 41.3913 74.018 39.5973L53.5524 38.4108L33.0868 37.2243C33.0227 38.3301 32.9536 39.3962 32.8957 40.2047C32.8664 40.614 32.8431 40.9125 32.8276 41.0965C32.8195 41.1913 32.8175 41.2089 32.8212 41.1714C32.8232 41.1518 32.8299 41.085 32.8415 40.986C32.8503 40.9102 32.8769 40.6848 32.9225 40.3835L53.1915 43.4524ZM53.5524 38.4108L74.0181 39.5964C74.1915 36.6028 74.2966 36.8287 74.1474 37.3422C74.0925 37.5311 74.0967 37.4442 74.3769 36.8109C74.6864 36.1114 75.1611 35.1236 76.0016 33.4379L57.6553 24.2911L39.309 15.1443C37.7299 18.3116 35.9299 21.9304 34.776 25.9011C33.5134 30.2462 33.2664 34.1233 33.0867 37.2252L53.5524 38.4108ZM57.6553 24.2911L76.0002 33.4407C77.0458 31.3443 78.1895 28.4694 78.8732 26.2877L59.3114 20.157L39.7496 14.0263C39.7721 13.9545 39.762 13.9918 39.7061 14.1453C39.655 14.2857 39.5881 14.4613 39.5121 14.651C39.4359 14.8413 39.3666 15.0058 39.3138 15.126C39.2537 15.263 39.2516 15.2594 39.3104 15.1415L57.6553 24.2911ZM59.3114 20.157L78.8733 26.2875C79.2679 25.0284 79.9056 22.9498 80.2348 20.2643C80.505 18.06 80.4986 15.9111 80.4999 14.5608L59.9999 14.5415L39.4999 14.5222C39.4995 14.8802 39.4983 15.1555 39.496 15.3787C39.4937 15.6021 39.4906 15.7339 39.4883 15.8057C39.4837 15.9552 39.4858 15.7132 39.5393 15.2762C39.5671 15.0499 39.6041 14.807 39.6509 14.5566C39.6973 14.3086 39.7443 14.1022 39.7817 13.9512C39.8172 13.8081 39.8405 13.7291 39.8356 13.7461C39.8291 13.7684 39.806 13.8462 39.7495 14.0265L59.3114 20.157ZM59.9999 14.5415L80.4999 14.5599C80.5009 13.4362 80.5358 10.9685 80.2133 8.59193C79.76 5.25112 78.7486 2.77106 78.3515 1.76776L59.2902 9.31216L40.2289 16.8566C40.2986 17.0327 40.3067 17.0562 40.2924 17.0176C40.274 16.9679 40.2019 16.7714 40.1117 16.4815C40.0166 16.1757 39.9093 15.7922 39.8096 15.3478C39.7095 14.9016 39.6369 14.4827 39.5856 14.105C39.4909 13.4065 39.488 12.9734 39.4925 13.1416C39.4975 13.3257 39.5006 13.6785 39.4999 14.5231L59.9999 14.5415ZM59.2902 9.31216L78.3517 1.76833C74.1348 -8.88667 64.7283 -16.2243 54.7587 -18.9962L49.2673 0.754574L43.7759 20.5054C43.1164 20.322 42.5733 20.0233 42.0904 19.611C41.6287 19.2168 40.8309 18.3777 40.2287 16.856L59.2902 9.31216ZM49.2673 0.754574L54.7587 -18.9962C51.6897 -19.8495 48.2349 -20.5316 44.0749 -20.4989C40.3371 -20.4694 36.8514 -19.8582 33.8359 -19.245L37.9208 0.84391L42.0058 20.9328C43.1359 20.703 43.8129 20.5893 44.2299 20.5324C44.6173 20.4795 44.6232 20.4981 44.3977 20.4999C44.1282 20.502 43.8221 20.4791 43.5626 20.439C43.3526 20.4065 43.3664 20.3915 43.7759 20.5054L49.2673 0.754574ZM37.9208 0.84391L33.8364 -19.2451C30.9836 -18.6651 30.0099 -18.6263 29.5606 -18.6294C29.1765 -18.6321 28.3677 -18.6656 25.8741 -19.2436L21.2445 0.726744L16.6148 20.6971C20.5619 21.6122 24.6494 22.3371 29.2724 22.3696C33.8303 22.4016 37.9743 21.7524 42.0052 20.9329L37.9208 0.84391ZM21.2445 0.726744L25.8745 -19.2436C21.1108 -20.348 15.6603 -20.9396 10.0023 -20.0337L13.2434 0.208467L16.4846 20.4506C15.8981 20.5445 15.5821 20.5191 15.6234 20.5217C15.6399 20.5228 15.7295 20.5295 15.8989 20.5556C16.0681 20.5817 16.3051 20.6253 16.6144 20.697L21.2445 0.726744Z" fill="#EBF5FB" mask="url(#path-1-inside-1_228_1160)"/>
</svg>
