<svg width="60" height="60" viewBox="0 0 60 60" fill="none" xmlns="http://www.w3.org/2000/svg">
<path d="M39.165 9.72C38.8317 8.54076 38.1224 7.50262 37.1449 6.76346C36.1675 6.0243 34.9754 5.62455 33.75 5.625H26.25C23.675 5.625 21.5 7.3575 20.835 9.72M39.165 9.72C39.3025 10.205 39.375 10.72 39.375 11.25C39.375 11.7473 39.1775 12.2242 38.8258 12.5758C38.4742 12.9275 37.9973 13.125 37.5 13.125H22.5C22.0027 13.125 21.5258 12.9275 21.1742 12.5758C20.8225 12.2242 20.625 11.7473 20.625 11.25C20.625 10.72 20.7 10.205 20.835 9.72M39.165 9.72C40.78 9.8425 42.385 9.995 43.9825 10.18C46.7325 10.5 48.75 12.8725 48.75 15.6425V48.75C48.75 50.2418 48.1574 51.6726 47.1025 52.7275C46.0476 53.7824 44.6168 54.375 43.125 54.375H16.875C15.3832 54.375 13.9524 53.7824 12.8975 52.7275C11.8426 51.6726 11.25 50.2418 11.25 48.75V15.6425C11.25 12.8725 13.265 10.5 16.0175 10.18C17.6201 9.99444 19.2262 9.84107 20.835 9.72" fill="#389BDA"/>
<path d="M39.165 9.72C38.8317 8.54076 38.1224 7.50262 37.1449 6.76346C36.1675 6.0243 34.9754 5.62455 33.75 5.625H26.25C23.675 5.625 21.5 7.3575 20.835 9.72M39.165 9.72C39.3025 10.205 39.375 10.72 39.375 11.25C39.375 11.7473 39.1775 12.2242 38.8258 12.5758C38.4742 12.9275 37.9973 13.125 37.5 13.125H22.5C22.0027 13.125 21.5258 12.9275 21.1742 12.5758C20.8225 12.2242 20.625 11.7473 20.625 11.25C20.625 10.72 20.7 10.205 20.835 9.72M39.165 9.72C40.78 9.8425 42.385 9.995 43.9825 10.18C46.7325 10.5 48.75 12.8725 48.75 15.6425V48.75C48.75 50.2418 48.1574 51.6726 47.1025 52.7275C46.0476 53.7824 44.6168 54.375 43.125 54.375H16.875C15.3832 54.375 13.9524 53.7824 12.8975 52.7275C11.8426 51.6726 11.25 50.2418 11.25 48.75V15.6425C11.25 12.8725 13.265 10.5 16.0175 10.18C17.6201 9.99444 19.2262 9.84107 20.835 9.72" stroke="white" stroke-width="1.5" stroke-linecap="round" stroke-linejoin="round"/>
</svg>
