<svg width="60" height="60" viewBox="0 0 60 60" fill="none" xmlns="http://www.w3.org/2000/svg">
<path d="M39.3749 15C39.3749 17.4864 38.3872 19.871 36.6291 21.6291C34.8709 23.3873 32.4863 24.375 29.9999 24.375C27.5135 24.375 25.129 23.3873 23.3708 21.6291C21.6127 19.871 20.6249 17.4864 20.6249 15C20.6249 12.5136 21.6127 10.129 23.3708 8.37087C25.129 6.61272 27.5135 5.625 29.9999 5.625C32.4863 5.625 34.8709 6.61272 36.6291 8.37087C38.3872 10.129 39.3749 12.5136 39.3749 15ZM11.2524 50.295C11.3328 45.3759 13.3433 40.6854 16.8504 37.2351C20.3575 33.7848 25.0802 31.8512 29.9999 31.8512C34.9197 31.8512 39.6424 33.7848 43.1495 37.2351C46.6566 40.6854 48.6671 45.3759 48.7474 50.295C42.8659 52.9919 36.4703 54.3838 29.9999 54.375C23.3099 54.375 16.9599 52.915 11.2524 50.295Z" stroke="#1A2E46" stroke-width="1.5" stroke-linecap="round" stroke-linejoin="round"/>
</svg>
