<svg width="61" height="60" viewBox="0 0 61 60" fill="none" xmlns="http://www.w3.org/2000/svg">
<path d="M24.4848 9.85C24.7098 8.495 25.8848 7.5 27.2598 7.5H33.7423C35.1173 7.5 36.2923 8.495 36.5173 9.85L37.0498 13.0525C37.2073 13.9875 37.8323 14.7675 38.6623 15.2275C38.8473 15.3275 39.0298 15.435 39.2123 15.545C40.0248 16.035 41.0123 16.1875 41.8998 15.855L44.9423 14.715C45.5658 14.4805 46.2523 14.4749 46.8795 14.6993C47.5067 14.9236 48.0339 15.3633 48.3673 15.94L51.6073 21.5575C51.9399 22.1343 52.0572 22.8103 51.9381 23.4654C51.8191 24.1205 51.4716 24.7121 50.9573 25.135L48.4498 27.2025C47.7173 27.805 47.3548 28.735 47.3748 29.6825C47.3783 29.895 47.3783 30.1075 47.3748 30.32C47.3548 31.265 47.7173 32.195 48.4498 32.7975L50.9598 34.865C52.0198 35.74 52.2948 37.2525 51.6098 38.44L48.3648 44.0575C48.0319 44.6341 47.5053 45.0739 46.8786 45.2987C46.2519 45.5234 45.5657 45.5186 44.9423 45.285L41.8998 44.145C41.0123 43.8125 40.0248 43.965 39.2098 44.455C39.0286 44.5653 38.8452 44.6719 38.6598 44.775C37.8323 45.2325 37.2073 46.0125 37.0498 46.9475L36.5173 50.15C36.2923 51.5075 35.1173 52.5 33.7423 52.5H27.2573C25.8823 52.5 24.7098 51.505 24.4823 50.15L23.9498 46.9475C23.7948 46.0125 23.1698 45.2325 22.3398 44.7725C22.1544 44.6702 21.971 44.5644 21.7898 44.455C20.9773 43.965 19.9898 43.8125 19.0998 44.145L16.0573 45.285C15.4341 45.5188 14.7482 45.524 14.1215 45.2997C13.4949 45.0754 12.9681 44.6362 12.6348 44.06L9.39228 38.4425C9.05964 37.8657 8.9424 37.1897 9.06142 36.5346C9.18045 35.8795 9.52801 35.2879 10.0423 34.865L12.5523 32.7975C13.2823 32.1975 13.6448 31.265 13.6273 30.32C13.6234 30.1075 13.6234 29.895 13.6273 29.6825C13.6448 28.7325 13.2823 27.805 12.5523 27.2025L10.0423 25.135C9.52863 24.7122 9.18147 24.1211 9.06246 23.4666C8.94346 22.812 9.06032 22.1365 9.39228 21.56L12.6348 15.9425C12.9677 15.3653 13.4948 14.9251 14.1221 14.7003C14.7493 14.4755 15.436 14.4807 16.0598 14.715L19.0998 15.855C19.9898 16.1875 20.9773 16.035 21.7898 15.545C21.9698 15.435 22.1548 15.33 22.3398 15.225C23.1698 14.7675 23.7948 13.9875 23.9498 13.0525L24.4848 9.85Z" stroke="#1A2E46" stroke-width="1.5" stroke-linecap="round" stroke-linejoin="round"/>
<path d="M38 30C38 31.9891 37.2098 33.8968 35.8033 35.3033C34.3968 36.7098 32.4891 37.5 30.5 37.5C28.5109 37.5 26.6032 36.7098 25.1967 35.3033C23.7902 33.8968 23 31.9891 23 30C23 28.0109 23.7902 26.1032 25.1967 24.6967C26.6032 23.2902 28.5109 22.5 30.5 22.5C32.4891 22.5 34.3968 23.2902 35.8033 24.6967C37.2098 26.1032 38 28.0109 38 30Z" stroke="#1A2E46" stroke-width="1.5" stroke-linecap="round" stroke-linejoin="round"/>
</svg>
