<svg width="60" height="60" viewBox="0 0 60 60" fill="none" xmlns="http://www.w3.org/2000/svg">
<path d="M23.9848 9.85C24.2098 8.495 25.3848 7.5 26.7598 7.5H33.2423C34.6173 7.5 35.7923 8.495 36.0173 9.85L36.5498 13.0525C36.7073 13.9875 37.3323 14.7675 38.1623 15.2275C38.3473 15.3275 38.5298 15.435 38.7123 15.545C39.5248 16.035 40.5123 16.1875 41.3998 15.855L44.4423 14.715C45.0658 14.4805 45.7523 14.4749 46.3795 14.6993C47.0067 14.9236 47.5339 15.3633 47.8673 15.94L51.1073 21.5575C51.4399 22.1343 51.5572 22.8103 51.4381 23.4654C51.3191 24.1205 50.9716 24.7121 50.4573 25.135L47.9498 27.2025C47.2173 27.805 46.8548 28.735 46.8748 29.6825C46.8783 29.895 46.8783 30.1075 46.8748 30.32C46.8548 31.265 47.2173 32.195 47.9498 32.7975L50.4598 34.865C51.5198 35.74 51.7948 37.2525 51.1098 38.44L47.8648 44.0575C47.5319 44.6341 47.0053 45.0739 46.3786 45.2987C45.7519 45.5234 45.0657 45.5186 44.4423 45.285L41.3998 44.145C40.5123 43.8125 39.5248 43.965 38.7098 44.455C38.5286 44.5653 38.3452 44.6719 38.1598 44.775C37.3323 45.2325 36.7073 46.0125 36.5498 46.9475L36.0173 50.15C35.7923 51.5075 34.6173 52.5 33.2423 52.5H26.7573C25.3823 52.5 24.2098 51.505 23.9823 50.15L23.4498 46.9475C23.2948 46.0125 22.6698 45.2325 21.8398 44.7725C21.6544 44.6702 21.471 44.5644 21.2898 44.455C20.4773 43.965 19.4898 43.8125 18.5998 44.145L15.5573 45.285C14.9341 45.5188 14.2482 45.524 13.6215 45.2997C12.9949 45.0754 12.4681 44.6362 12.1348 44.06L8.89228 38.4425C8.55964 37.8657 8.4424 37.1897 8.56142 36.5346C8.68045 35.8795 9.02801 35.2879 9.54228 34.865L12.0523 32.7975C12.7823 32.1975 13.1448 31.265 13.1273 30.32C13.1234 30.1075 13.1234 29.895 13.1273 29.6825C13.1448 28.7325 12.7823 27.805 12.0523 27.2025L9.54228 25.135C9.02863 24.7122 8.68147 24.1211 8.56246 23.4666C8.44346 22.812 8.56032 22.1365 8.89228 21.56L12.1348 15.9425C12.4677 15.3653 12.9948 14.9251 13.6221 14.7003C14.2493 14.4755 14.936 14.4807 15.5598 14.715L18.5998 15.855C19.4898 16.1875 20.4773 16.035 21.2898 15.545C21.4698 15.435 21.6548 15.33 21.8398 15.225C22.6698 14.7675 23.2948 13.9875 23.4498 13.0525L23.9848 9.85Z" fill="#389BDA"/>
<path d="M37.5 30C37.5 31.9891 36.7098 33.8968 35.3033 35.3033C33.8968 36.7098 31.9891 37.5 30 37.5C28.0109 37.5 26.1032 36.7098 24.6967 35.3033C23.2902 33.8968 22.5 31.9891 22.5 30C22.5 28.0109 23.2902 26.1032 24.6967 24.6967C26.1032 23.2902 28.0109 22.5 30 22.5C31.9891 22.5 33.8968 23.2902 35.3033 24.6967C36.7098 26.1032 37.5 28.0109 37.5 30Z" stroke="white" stroke-width="1.5" stroke-linecap="round" stroke-linejoin="round"/>
</svg>
