<svg width="296" height="300" viewBox="0 0 296 300" fill="none" xmlns="http://www.w3.org/2000/svg">
<ellipse cx="148" cy="150" rx="148" ry="150" fill="#C1E0F4"/>
<path d="M148.457 150.956C191.306 150.956 226.336 182.813 228.835 223H68.079C70.5774 182.813 105.608 150.956 148.457 150.956Z" fill="#225D83"/>
<ellipse cx="148.457" cy="122.985" rx="48.3128" ry="45.9853" fill="#225D83"/>
<rect x="226" y="230" width="70" height="70" rx="20" fill="#194662"/>
<path d="M275.181 243.087L280.101 238.164C281.127 237.138 282.518 236.562 283.969 236.562C285.419 236.562 286.811 237.138 287.836 238.164C288.862 239.19 289.438 240.581 289.438 242.031C289.438 243.482 288.862 244.873 287.836 245.899L256.864 276.871C255.322 278.412 253.421 279.545 251.331 280.167L243.5 282.5L245.833 274.669C246.455 272.58 247.588 270.678 249.129 269.136L275.181 243.087ZM275.181 243.087L282.875 250.781M278.5 270.834V284.688C278.5 286.428 277.809 288.097 276.578 289.328C275.347 290.559 273.678 291.25 271.938 291.25H241.313C239.572 291.25 237.903 290.559 236.672 289.328C235.441 288.097 234.75 286.428 234.75 284.688V254.063C234.75 252.322 235.441 250.653 236.672 249.422C237.903 248.192 239.572 247.5 241.313 247.5H255.167" stroke="#C1E0F4" stroke-width="3" stroke-linecap="round" stroke-linejoin="round"/>
</svg>
